<svg xmlns="http://www.w3.org/2000/svg" width="792" height="148" viewBox="0 0 792 148">
<rect width="792" height="148" fill="#FFFFFF"/>
<text x="40" y="14" style="font-size:11px;font-family:Arial;font-weight:bold;" fill="#333">2026年累计阅读 43 小时</text>
<text x="40" y="24" style="font-size:9px;font-family:Arial;" fill="#666">Jan</text>
<text x="110" y="24" style="font-size:9px;font-family:Arial;" fill="#666">Feb</text>
<text x="166" y="24" style="font-size:9px;font-family:Arial;" fill="#666">Mar</text>
<text x="222" y="24" style="font-size:9px;font-family:Arial;" fill="#666">Apr</text>
<text x="278" y="24" style="font-size:9px;font-family:Arial;" fill="#666">May</text>
<text x="348" y="24" style="font-size:9px;font-family:Arial;" fill="#666">Jun</text>
<text x="404" y="24" style="font-size:9px;font-family:Arial;" fill="#666">Jul</text>
<text x="460" y="24" style="font-size:9px;font-family:Arial;" fill="#666">Aug</text>
<text x="530" y="24" style="font-size:9px;font-family:Arial;" fill="#666">Sep</text>
<text x="586" y="24" style="font-size:9px;font-family:Arial;" fill="#666">Oct</text>
<text x="656" y="24" style="font-size:9px;font-family:Arial;" fill="#666">Nov</text>
<text x="712" y="24" style="font-size:9px;font-family:Arial;" fill="#666">Dec</text>
<text x="2" y="38" style="font-size:8px;font-family:Arial;" fill="#666" text-anchor="end"></text>
<text x="2" y="52" style="font-size:8px;font-family:Arial;" fill="#666" text-anchor="end">Mon</text>
<text x="2" y="66" style="font-size:8px;font-family:Arial;" fill="#666" text-anchor="end"></text>
<text x="2" y="80" style="font-size:8px;font-family:Arial;" fill="#666" text-anchor="end">Wed</text>
<text x="2" y="94" style="font-size:8px;font-family:Arial;" fill="#666" text-anchor="end"></text>
<text x="2" y="108" style="font-size:8px;font-family:Arial;" fill="#666" text-anchor="end">Fri</text>
<text x="2" y="122" style="font-size:8px;font-family:Arial;" fill="#666" text-anchor="end"></text>
<rect x="40" y="84" width="12" height="12" rx="2" ry="2" fill="#EBEDF0"><title>2026-01-01: 0 min</title></rect>
<rect x="40" y="98" width="12" height="12" rx="2" ry="2" fill="#EBEDF0"><title>2026-01-02: 0 min</title></rect>
<rect x="40" y="112" width="12" height="12" rx="2" ry="2" fill="#69C16E"><title>2026-01-03: 39 min</title></rect>
<rect x="54" y="28" width="12" height="12" rx="2" ry="2" fill="#69C16E"><title>2026-01-04: 40 min</title></rect>
<rect x="54" y="42" width="12" height="12" rx="2" ry="2" fill="#ACE7AE"><title>2026-01-05: 22 min</title></rect>
<rect x="54" y="56" width="12" height="12" rx="2" ry="2" fill="#ACE7AE"><title>2026-01-06: 28 min</title></rect>
<rect x="54" y="70" width="12" height="12" rx="2" ry="2" fill="#ACE7AE"><title>2026-01-07: 26 min</title></rect>
<rect x="54" y="84" width="12" height="12" rx="2" ry="2" fill="#ACE7AE"><title>2026-01-08: 29 min</title></rect>
<rect x="54" y="98" width="12" height="12" rx="2" ry="2" fill="#EBEDF0"><title>2026-01-09: 0 min</title></rect>
<rect x="54" y="112" width="12" height="12" rx="2" ry="2" fill="#ACE7AE"><title>2026-01-10: 12 min</title></rect>
<rect x="68" y="28" width="12" height="12" rx="2" ry="2" fill="#549F57"><title>2026-01-11: 94 min</title></rect>
<rect x="68" y="42" width="12" height="12" rx="2" ry="2" fill="#EBEDF0"><title>2026-01-12: 0 min</title></rect>
<rect x="68" y="56" width="12" height="12" rx="2" ry="2" fill="#ACE7AE"><title>2026-01-13: 10 min</title></rect>
<rect x="68" y="70" width="12" height="12" rx="2" ry="2" fill="#EBEDF0"><title>2026-01-14: 0 min</title></rect>
<rect x="68" y="84" width="12" height="12" rx="2" ry="2" fill="#EBEDF0"><title>2026-01-15: 0 min</title></rect>
<rect x="68" y="98" width="12" height="12" rx="2" ry="2" fill="#ACE7AE"><title>2026-01-16: 30 min</title></rect>
<rect x="68" y="112" width="12" height="12" rx="2" ry="2" fill="#EBEDF0"><title>2026-01-17: 0 min</title></rect>
<rect x="82" y="28" width="12" height="12" rx="2" ry="2" fill="#EBEDF0"><title>2026-01-18: 0 min</title></rect>
<rect x="82" y="42" width="12" height="12" rx="2" ry="2" fill="#ACE7AE"><title>2026-01-19: 0 min</title></rect>
<rect x="82" y="56" width="12" height="12" rx="2" ry="2" fill="#EBEDF0"><title>2026-01-20: 0 min</title></rect>
<rect x="82" y="70" width="12" height="12" rx="2" ry="2" fill="#EBEDF0"><title>2026-01-21: 0 min</title></rect>
<rect x="82" y="84" width="12" height="12" rx="2" ry="2" fill="#EBEDF0"><title>2026-01-22: 0 min</title></rect>
<rect x="82" y="98" width="12" height="12" rx="2" ry="2" fill="#EBEDF0"><title>2026-01-23: 0 min</title></rect>
<rect x="82" y="112" width="12" height="12" rx="2" ry="2" fill="#EBEDF0"><title>2026-01-24: 0 min</title></rect>
<rect x="96" y="28" width="12" height="12" rx="2" ry="2" fill="#ACE7AE"><title>2026-01-25: 19 min</title></rect>
<rect x="96" y="42" width="12" height="12" rx="2" ry="2" fill="#ACE7AE"><title>2026-01-26: 1 min</title></rect>
<rect x="96" y="56" width="12" height="12" rx="2" ry="2" fill="#ACE7AE"><title>2026-01-27: 17 min</title></rect>
<rect x="96" y="70" width="12" height="12" rx="2" ry="2" fill="#EBEDF0"><title>2026-01-28: 0 min</title></rect>
<rect x="96" y="84" width="12" height="12" rx="2" ry="2" fill="#ACE7AE"><title>2026-01-29: 14 min</title></rect>
<rect x="96" y="98" width="12" height="12" rx="2" ry="2" fill="#69C16E"><title>2026-01-30: 57 min</title></rect>
<rect x="96" y="112" width="12" height="12" rx="2" ry="2" fill="#69C16E"><title>2026-01-31: 57 min</title></rect>
<rect x="110" y="28" width="12" height="12" rx="2" ry="2" fill="#69C16E"><title>2026-02-01: 60 min</title></rect>
<rect x="110" y="42" width="12" height="12" rx="2" ry="2" fill="#ACE7AE"><title>2026-02-02: 16 min</title></rect>
<rect x="110" y="56" width="12" height="12" rx="2" ry="2" fill="#69C16E"><title>2026-02-03: 49 min</title></rect>
<rect x="110" y="70" width="12" height="12" rx="2" ry="2" fill="#ACE7AE"><title>2026-02-04: 30 min</title></rect>
<rect x="110" y="84" width="12" height="12" rx="2" ry="2" fill="#EBEDF0"><title>2026-02-05: 0 min</title></rect>
<rect x="110" y="98" width="12" height="12" rx="2" ry="2" fill="#ACE7AE"><title>2026-02-06: 7 min</title></rect>
<rect x="110" y="112" width="12" height="12" rx="2" ry="2" fill="#EBEDF0"><title>2026-02-07: 0 min</title></rect>
<rect x="124" y="28" width="12" height="12" rx="2" ry="2" fill="#549F57"><title>2026-02-08: 112 min</title></rect>
<rect x="124" y="42" width="12" height="12" rx="2" ry="2" fill="#EBEDF0"><title>2026-02-09: 0 min</title></rect>
<rect x="124" y="56" width="12" height="12" rx="2" ry="2" fill="#2B7239"><title>2026-02-10: 147 min</title></rect>
<rect x="124" y="70" width="12" height="12" rx="2" ry="2" fill="#ACE7AE"><title>2026-02-11: 9 min</title></rect>
<rect x="124" y="84" width="12" height="12" rx="2" ry="2" fill="#ACE7AE"><title>2026-02-12: 13 min</title></rect>
<rect x="124" y="98" width="12" height="12" rx="2" ry="2" fill="#549F57"><title>2026-02-13: 87 min</title></rect>
<rect x="124" y="112" width="12" height="12" rx="2" ry="2" fill="#ACE7AE"><title>2026-02-14: 14 min</title></rect>
<rect x="138" y="28" width="12" height="12" rx="2" ry="2" fill="#EBEDF0"><title>2026-02-15: 0 min</title></rect>
<rect x="138" y="42" width="12" height="12" rx="2" ry="2" fill="#ACE7AE"><title>2026-02-16: 16 min</title></rect>
<rect x="138" y="56" width="12" height="12" rx="2" ry="2" fill="#69C16E"><title>2026-02-17: 38 min</title></rect>
<rect x="138" y="70" width="12" height="12" rx="2" ry="2" fill="#69C16E"><title>2026-02-18: 41 min</title></rect>
<rect x="138" y="84" width="12" height="12" rx="2" ry="2" fill="#69C16E"><title>2026-02-19: 31 min</title></rect>
<rect x="138" y="98" width="12" height="12" rx="2" ry="2" fill="#549F57"><title>2026-02-20: 86 min</title></rect>
<rect x="138" y="112" width="12" height="12" rx="2" ry="2" fill="#EBEDF0"><title>2026-02-21: 0 min</title></rect>
<rect x="152" y="28" width="12" height="12" rx="2" ry="2" fill="#ACE7AE"><title>2026-02-22: 14 min</title></rect>
<rect x="152" y="42" width="12" height="12" rx="2" ry="2" fill="#ACE7AE"><title>2026-02-23: 10 min</title></rect>
<rect x="152" y="56" width="12" height="12" rx="2" ry="2" fill="#69C16E"><title>2026-02-24: 32 min</title></rect>
<rect x="152" y="70" width="12" height="12" rx="2" ry="2" fill="#ACE7AE"><title>2026-02-25: 11 min</title></rect>
<rect x="152" y="84" width="12" height="12" rx="2" ry="2" fill="#ACE7AE"><title>2026-02-26: 22 min</title></rect>
<rect x="152" y="98" width="12" height="12" rx="2" ry="2" fill="#69C16E"><title>2026-02-27: 40 min</title></rect>
<rect x="152" y="112" width="12" height="12" rx="2" ry="2" fill="#ACE7AE"><title>2026-02-28: 20 min</title></rect>
<rect x="166" y="28" width="12" height="12" rx="2" ry="2" fill="#EBEDF0"><title>2026-03-01: 0 min</title></rect>
<rect x="166" y="42" width="12" height="12" rx="2" ry="2" fill="#EBEDF0"><title>2026-03-02: 0 min</title></rect>
<rect x="166" y="56" width="12" height="12" rx="2" ry="2" fill="#EBEDF0"><title>2026-03-03: 0 min</title></rect>
<rect x="166" y="70" width="12" height="12" rx="2" ry="2" fill="#EBEDF0"><title>2026-03-04: 0 min</title></rect>
<rect x="166" y="84" width="12" height="12" rx="2" ry="2" fill="#ACE7AE"><title>2026-03-05: 0 min</title></rect>
<rect x="166" y="98" width="12" height="12" rx="2" ry="2" fill="#EBEDF0"><title>2026-03-06: 0 min</title></rect>
<rect x="166" y="112" width="12" height="12" rx="2" ry="2" fill="#EBEDF0"><title>2026-03-07: 0 min</title></rect>
<rect x="180" y="28" width="12" height="12" rx="2" ry="2" fill="#EBEDF0"><title>2026-03-08: 0 min</title></rect>
<rect x="180" y="42" width="12" height="12" rx="2" ry="2" fill="#EBEDF0"><title>2026-03-09: 0 min</title></rect>
<rect x="180" y="56" width="12" height="12" rx="2" ry="2" fill="#EBEDF0"><title>2026-03-10: 0 min</title></rect>
<rect x="180" y="70" width="12" height="12" rx="2" ry="2" fill="#EBEDF0"><title>2026-03-11: 0 min</title></rect>
<rect x="180" y="84" width="12" height="12" rx="2" ry="2" fill="#EBEDF0"><title>2026-03-12: 0 min</title></rect>
<rect x="180" y="98" width="12" height="12" rx="2" ry="2" fill="#EBEDF0"><title>2026-03-13: 0 min</title></rect>
<rect x="180" y="112" width="12" height="12" rx="2" ry="2" fill="#EBEDF0"><title>2026-03-14: 0 min</title></rect>
<rect x="194" y="28" width="12" height="12" rx="2" ry="2" fill="#EBEDF0"><title>2026-03-15: 0 min</title></rect>
<rect x="194" y="42" width="12" height="12" rx="2" ry="2" fill="#EBEDF0"><title>2026-03-16: 0 min</title></rect>
<rect x="194" y="56" width="12" height="12" rx="2" ry="2" fill="#EBEDF0"><title>2026-03-17: 0 min</title></rect>
<rect x="194" y="70" width="12" height="12" rx="2" ry="2" fill="#EBEDF0"><title>2026-03-18: 0 min</title></rect>
<rect x="194" y="84" width="12" height="12" rx="2" ry="2" fill="#69C16E"><title>2026-03-19: 31 min</title></rect>
<rect x="194" y="98" width="12" height="12" rx="2" ry="2" fill="#EBEDF0"><title>2026-03-20: 0 min</title></rect>
<rect x="194" y="112" width="12" height="12" rx="2" ry="2" fill="#ACE7AE"><title>2026-03-21: 11 min</title></rect>
<rect x="208" y="28" width="12" height="12" rx="2" ry="2" fill="#549F57"><title>2026-03-22: 61 min</title></rect>
<rect x="208" y="42" width="12" height="12" rx="2" ry="2" fill="#EBEDF0"><title>2026-03-23: 0 min</title></rect>
<rect x="208" y="56" width="12" height="12" rx="2" ry="2" fill="#EBEDF0"><title>2026-03-24: 0 min</title></rect>
<rect x="208" y="70" width="12" height="12" rx="2" ry="2" fill="#EBEDF0"><title>2026-03-25: 0 min</title></rect>
<rect x="208" y="84" width="12" height="12" rx="2" ry="2" fill="#EBEDF0"><title>2026-03-26: 0 min</title></rect>
<rect x="208" y="98" width="12" height="12" rx="2" ry="2" fill="#EBEDF0"><title>2026-03-27: 0 min</title></rect>
<rect x="208" y="112" width="12" height="12" rx="2" ry="2" fill="#EBEDF0"><title>2026-03-28: 0 min</title></rect>
<rect x="222" y="28" width="12" height="12" rx="2" ry="2" fill="#ACE7AE"><title>2026-03-29: 16 min</title></rect>
<rect x="222" y="42" width="12" height="12" rx="2" ry="2" fill="#ACE7AE"><title>2026-03-30: 18 min</title></rect>
<rect x="222" y="56" width="12" height="12" rx="2" ry="2" fill="#69C16E"><title>2026-03-31: 40 min</title></rect>
<rect x="222" y="70" width="12" height="12" rx="2" ry="2" fill="#69C16E"><title>2026-04-01: 33 min</title></rect>
<rect x="222" y="84" width="12" height="12" rx="2" ry="2" fill="#ACE7AE"><title>2026-04-02: 18 min</title></rect>
<rect x="222" y="98" width="12" height="12" rx="2" ry="2" fill="#ACE7AE"><title>2026-04-03: 18 min</title></rect>
<rect x="222" y="112" width="12" height="12" rx="2" ry="2" fill="#EBEDF0"><title>2026-04-04: 0 min</title></rect>
<rect x="236" y="28" width="12" height="12" rx="2" ry="2" fill="#ACE7AE"><title>2026-04-05: 26 min</title></rect>
<rect x="236" y="42" width="12" height="12" rx="2" ry="2" fill="#69C16E"><title>2026-04-06: 38 min</title></rect>
<rect x="236" y="56" width="12" height="12" rx="2" ry="2" fill="#69C16E"><title>2026-04-07: 40 min</title></rect>
<rect x="236" y="70" width="12" height="12" rx="2" ry="2" fill="#EBEDF0"><title>2026-04-08: 0 min</title></rect>
<rect x="236" y="84" width="12" height="12" rx="2" ry="2" fill="#ACE7AE"><title>2026-04-09: 6 min</title></rect>
<rect x="236" y="98" width="12" height="12" rx="2" ry="2" fill="#EBEDF0"><title>2026-04-10: 0 min</title></rect>
<rect x="236" y="112" width="12" height="12" rx="2" ry="2" fill="#EBEDF0"><title>2026-04-11: 0 min</title></rect>
<rect x="250" y="28" width="12" height="12" rx="2" ry="2" fill="#ACE7AE"><title>2026-04-12: 25 min</title></rect>
<rect x="250" y="42" width="12" height="12" rx="2" ry="2" fill="#69C16E"><title>2026-04-13: 33 min</title></rect>
<rect x="250" y="56" width="12" height="12" rx="2" ry="2" fill="#ACE7AE"><title>2026-04-14: 10 min</title></rect>
<rect x="250" y="70" width="12" height="12" rx="2" ry="2" fill="#ACE7AE"><title>2026-04-15: 9 min</title></rect>
<rect x="250" y="84" width="12" height="12" rx="2" ry="2" fill="#EBEDF0"><title>2026-04-16: 0 min</title></rect>
<rect x="250" y="98" width="12" height="12" rx="2" ry="2" fill="#ACE7AE"><title>2026-04-17: 9 min</title></rect>
<rect x="250" y="112" width="12" height="12" rx="2" ry="2" fill="#EBEDF0"><title>2026-04-18: 0 min</title></rect>
<rect x="264" y="28" width="12" height="12" rx="2" ry="2" fill="#EBEDF0"><title>2026-04-19: 0 min</title></rect>
<rect x="264" y="42" width="12" height="12" rx="2" ry="2" fill="#ACE7AE"><title>2026-04-20: 17 min</title></rect>
<rect x="264" y="56" width="12" height="12" rx="2" ry="2" fill="#ACE7AE"><title>2026-04-21: 8 min</title></rect>
<rect x="264" y="70" width="12" height="12" rx="2" ry="2" fill="#ACE7AE"><title>2026-04-22: 2 min</title></rect>
<rect x="264" y="84" width="12" height="12" rx="2" ry="2" fill="#EBEDF0"><title>2026-04-23: 0 min</title></rect>
<rect x="264" y="98" width="12" height="12" rx="2" ry="2" fill="#EBEDF0"><title>2026-04-24: 0 min</title></rect>
<rect x="264" y="112" width="12" height="12" rx="2" ry="2" fill="#ACE7AE"><title>2026-04-25: 0 min</title></rect>
<rect x="278" y="28" width="12" height="12" rx="2" ry="2" fill="#EBEDF0"><title>2026-04-26: 0 min</title></rect>
<rect x="278" y="42" width="12" height="12" rx="2" ry="2" fill="#ACE7AE"><title>2026-04-27: 16 min</title></rect>
<rect x="278" y="56" width="12" height="12" rx="2" ry="2" fill="#ACE7AE"><title>2026-04-28: 8 min</title></rect>
<rect x="278" y="70" width="12" height="12" rx="2" ry="2" fill="#ACE7AE"><title>2026-04-29: 8 min</title></rect>
<rect x="278" y="84" width="12" height="12" rx="2" ry="2" fill="#EBEDF0"><title>2026-04-30: 0 min</title></rect>
<rect x="278" y="98" width="12" height="12" rx="2" ry="2" fill="#EBEDF0"><title>2026-05-01: 0 min</title></rect>
<rect x="278" y="112" width="12" height="12" rx="2" ry="2" fill="#69C16E"><title>2026-05-02: 37 min</title></rect>
<rect x="292" y="28" width="12" height="12" rx="2" ry="2" fill="#69C16E"><title>2026-05-03: 48 min</title></rect>
<rect x="292" y="42" width="12" height="12" rx="2" ry="2" fill="#EBEDF0"><title>2026-05-04: 0 min</title></rect>
<rect x="292" y="56" width="12" height="12" rx="2" ry="2" fill="#ACE7AE"><title>2026-05-05: 10 min</title></rect>
<rect x="292" y="70" width="12" height="12" rx="2" ry="2" fill="#ACE7AE"><title>2026-05-06: 24 min</title></rect>
<rect x="292" y="84" width="12" height="12" rx="2" ry="2" fill="#ACE7AE"><title>2026-05-07: 14 min</title></rect>
<rect x="292" y="98" width="12" height="12" rx="2" ry="2" fill="#ACE7AE"><title>2026-05-08: 12 min</title></rect>
<rect x="292" y="112" width="12" height="12" rx="2" ry="2" fill="#EBEDF0"><title>2026-05-09: 0 min</title></rect>
<rect x="306" y="28" width="12" height="12" rx="2" ry="2" fill="#EBEDF0"><title>2026-05-10: 0 min</title></rect>
<rect x="306" y="42" width="12" height="12" rx="2" ry="2" fill="#EBEDF0"><title>2026-05-11: 0 min</title></rect>
<rect x="306" y="56" width="12" height="12" rx="2" ry="2" fill="#EBEDF0"><title>2026-05-12: 0 min</title></rect>
<rect x="306" y="70" width="12" height="12" rx="2" ry="2" fill="#EBEDF0"><title>2026-05-13: 0 min</title></rect>
<rect x="306" y="84" width="12" height="12" rx="2" ry="2" fill="#EBEDF0"><title>2026-05-14: 0 min</title></rect>
<rect x="306" y="98" width="12" height="12" rx="2" ry="2" fill="#EBEDF0"><title>2026-05-15: 0 min</title></rect>
<rect x="306" y="112" width="12" height="12" rx="2" ry="2" fill="#EBEDF0"><title>2026-05-16: 0 min</title></rect>
<rect x="320" y="28" width="12" height="12" rx="2" ry="2" fill="#ACE7AE"><title>2026-05-17: 6 min</title></rect>
<rect x="320" y="42" width="12" height="12" rx="2" ry="2" fill="#ACE7AE"><title>2026-05-18: 25 min</title></rect>
<rect x="320" y="56" width="12" height="12" rx="2" ry="2" fill="#ACE7AE"><title>2026-05-19: 12 min</title></rect>
<rect x="320" y="70" width="12" height="12" rx="2" ry="2" fill="#ACE7AE"><title>2026-05-20: 15 min</title></rect>
<rect x="320" y="84" width="12" height="12" rx="2" ry="2" fill="#ACE7AE"><title>2026-05-21: 23 min</title></rect>
<rect x="320" y="98" width="12" height="12" rx="2" ry="2" fill="#EBEDF0"><title>2026-05-22: 0 min</title></rect>
<rect x="320" y="112" width="12" height="12" rx="2" ry="2" fill="#EBEDF0"><title>2026-05-23: 0 min</title></rect>
<rect x="334" y="28" width="12" height="12" rx="2" ry="2" fill="#EBEDF0"><title>2026-05-24: 0 min</title></rect>
<rect x="334" y="42" width="12" height="12" rx="2" ry="2" fill="#EBEDF0"><title>2026-05-25: 0 min</title></rect>
<rect x="334" y="56" width="12" height="12" rx="2" ry="2" fill="#EBEDF0"><title>2026-05-26: 0 min</title></rect>
<rect x="334" y="70" width="12" height="12" rx="2" ry="2" fill="#EBEDF0"><title>2026-05-27: 0 min</title></rect>
<rect x="334" y="84" width="12" height="12" rx="2" ry="2" fill="#ACE7AE"><title>2026-05-28: 25 min</title></rect>
<rect x="334" y="98" width="12" height="12" rx="2" ry="2" fill="#EBEDF0"><title>2026-05-29: 0 min</title></rect>
<rect x="334" y="112" width="12" height="12" rx="2" ry="2" fill="#EBEDF0"><title>2026-05-30: 0 min</title></rect>
<rect x="348" y="28" width="12" height="12" rx="2" ry="2" fill="#EBEDF0"><title>2026-05-31: 0 min</title></rect>
<rect x="348" y="42" width="12" height="12" rx="2" ry="2" fill="#ACE7AE"><title>2026-06-01: 12 min</title></rect>
<rect x="348" y="56" width="12" height="12" rx="2" ry="2" fill="#69C16E"><title>2026-06-02: 34 min</title></rect>
<rect x="348" y="70" width="12" height="12" rx="2" ry="2" fill="#EBEDF0"><title>2026-06-03: 0 min</title></rect>
<rect x="348" y="84" width="12" height="12" rx="2" ry="2" fill="#ACE7AE"><title>2026-06-04: 10 min</title></rect>
<rect x="348" y="98" width="12" height="12" rx="2" ry="2" fill="#ACE7AE"><title>2026-06-05: 28 min</title></rect>
<rect x="348" y="112" width="12" height="12" rx="2" ry="2" fill="#EBEDF0"><title>2026-06-06: 0 min</title></rect>
<rect x="362" y="28" width="12" height="12" rx="2" ry="2" fill="#ACE7AE"><title>2026-06-07: 0 min</title></rect>
<rect x="362" y="42" width="12" height="12" rx="2" ry="2" fill="#ACE7AE"><title>2026-06-08: 24 min</title></rect>
<rect x="362" y="56" width="12" height="12" rx="2" ry="2" fill="#ACE7AE"><title>2026-06-09: 20 min</title></rect>
<rect x="362" y="70" width="12" height="12" rx="2" ry="2" fill="#ACE7AE"><title>2026-06-10: 28 min</title></rect>
<rect x="362" y="84" width="12" height="12" rx="2" ry="2" fill="#ACE7AE"><title>2026-06-11: 22 min</title></rect>
<rect x="362" y="98" width="12" height="12" rx="2" ry="2" fill="#ACE7AE"><title>2026-06-12: 23 min</title></rect>
<rect x="362" y="112" width="12" height="12" rx="2" ry="2" fill="#69C16E"><title>2026-06-13: 32 min</title></rect>
<rect x="376" y="28" width="12" height="12" rx="2" ry="2" fill="#ACE7AE"><title>2026-06-14: 24 min</title></rect>
<rect x="376" y="42" width="12" height="12" rx="2" ry="2" fill="#ACE7AE"><title>2026-06-15: 29 min</title></rect>
<rect x="376" y="56" width="12" height="12" rx="2" ry="2" fill="#69C16E"><title>2026-06-16: 38 min</title></rect>
<rect x="376" y="70" width="12" height="12" rx="2" ry="2" fill="#ACE7AE"><title>2026-06-17: 16 min</title></rect>
<rect x="376" y="84" width="12" height="12" rx="2" ry="2" fill="#EBEDF0"><title>2026-06-18: 0 min</title></rect>
<rect x="376" y="98" width="12" height="12" rx="2" ry="2" fill="#EBEDF0"><title>2026-06-19: 0 min</title></rect>
<rect x="376" y="112" width="12" height="12" rx="2" ry="2" fill="#ACE7AE"><title>2026-06-20: 17 min</title></rect>
<rect x="390" y="28" width="12" height="12" rx="2" ry="2" fill="#EBEDF0"><title>2026-06-21: 0 min</title></rect>
<rect x="390" y="42" width="12" height="12" rx="2" ry="2" fill="#ACE7AE"><title>2026-06-22: 12 min</title></rect>
<rect x="390" y="56" width="12" height="12" rx="2" ry="2" fill="#EBEDF0"><title>2026-06-23: 0 min</title></rect>
<rect x="390" y="70" width="12" height="12" rx="2" ry="2" fill="#ACE7AE"><title>2026-06-24: 0 min</title></rect>
<rect x="390" y="84" width="12" height="12" rx="2" ry="2" fill="#69C16E"><title>2026-06-25: 49 min</title></rect>
<rect x="390" y="98" width="12" height="12" rx="2" ry="2" fill="#69C16E"><title>2026-06-26: 31 min</title></rect>
<rect x="390" y="112" width="12" height="12" rx="2" ry="2" fill="#ACE7AE"><title>2026-06-27: 4 min</title></rect>
<rect x="404" y="28" width="12" height="12" rx="2" ry="2" fill="#EBEDF0"><title>2026-06-28: 0 min</title></rect>
<rect x="404" y="42" width="12" height="12" rx="2" ry="2" fill="#EBEDF0"><title>2026-06-29: 0 min</title></rect>
<rect x="404" y="56" width="12" height="12" rx="2" ry="2" fill="#EBEDF0"><title>2026-06-30: 0 min</title></rect>
<rect x="404" y="70" width="12" height="12" rx="2" ry="2" fill="#EBEDF0"><title>2026-07-01: 0 min</title></rect>
<rect x="404" y="84" width="12" height="12" rx="2" ry="2" fill="#EBEDF0"><title>2026-07-02: 0 min</title></rect>
<rect x="404" y="98" width="12" height="12" rx="2" ry="2" fill="#EBEDF0"><title>2026-07-03: 0 min</title></rect>
<rect x="404" y="112" width="12" height="12" rx="2" ry="2" fill="#EBEDF0"><title>2026-07-04: 0 min</title></rect>
<rect x="418" y="28" width="12" height="12" rx="2" ry="2" fill="#EBEDF0"><title>2026-07-05: 0 min</title></rect>
<rect x="418" y="42" width="12" height="12" rx="2" ry="2" fill="#EBEDF0"><title>2026-07-06: 0 min</title></rect>
<rect x="418" y="56" width="12" height="12" rx="2" ry="2" fill="#EBEDF0"><title>2026-07-07: 0 min</title></rect>
<rect x="418" y="70" width="12" height="12" rx="2" ry="2" fill="#EBEDF0"><title>2026-07-08: 0 min</title></rect>
<rect x="418" y="84" width="12" height="12" rx="2" ry="2" fill="#EBEDF0"><title>2026-07-09: 0 min</title></rect>
<rect x="418" y="98" width="12" height="12" rx="2" ry="2" fill="#EBEDF0"><title>2026-07-10: 0 min</title></rect>
<rect x="418" y="112" width="12" height="12" rx="2" ry="2" fill="#EBEDF0"><title>2026-07-11: 0 min</title></rect>
<rect x="432" y="28" width="12" height="12" rx="2" ry="2" fill="#EBEDF0"><title>2026-07-12: 0 min</title></rect>
<rect x="432" y="42" width="12" height="12" rx="2" ry="2" fill="#EBEDF0"><title>2026-07-13: 0 min</title></rect>
<rect x="432" y="56" width="12" height="12" rx="2" ry="2" fill="#EBEDF0"><title>2026-07-14: 0 min</title></rect>
<rect x="432" y="70" width="12" height="12" rx="2" ry="2" fill="#EBEDF0"><title>2026-07-15: 0 min</title></rect>
<rect x="432" y="84" width="12" height="12" rx="2" ry="2" fill="#EBEDF0"><title>2026-07-16: 0 min</title></rect>
<rect x="432" y="98" width="12" height="12" rx="2" ry="2" fill="#EBEDF0"><title>2026-07-17: 0 min</title></rect>
<rect x="432" y="112" width="12" height="12" rx="2" ry="2" fill="#EBEDF0"><title>2026-07-18: 0 min</title></rect>
<rect x="446" y="28" width="12" height="12" rx="2" ry="2" fill="#EBEDF0"><title>2026-07-19: 0 min</title></rect>
<rect x="446" y="42" width="12" height="12" rx="2" ry="2" fill="#EBEDF0"><title>2026-07-20: 0 min</title></rect>
<rect x="446" y="56" width="12" height="12" rx="2" ry="2" fill="#EBEDF0"><title>2026-07-21: 0 min</title></rect>
<rect x="446" y="70" width="12" height="12" rx="2" ry="2" fill="#EBEDF0"><title>2026-07-22: 0 min</title></rect>
<rect x="446" y="84" width="12" height="12" rx="2" ry="2" fill="#EBEDF0"><title>2026-07-23: 0 min</title></rect>
<rect x="446" y="98" width="12" height="12" rx="2" ry="2" fill="#EBEDF0"><title>2026-07-24: 0 min</title></rect>
<rect x="446" y="112" width="12" height="12" rx="2" ry="2" fill="#EBEDF0"><title>2026-07-25: 0 min</title></rect>
<rect x="460" y="28" width="12" height="12" rx="2" ry="2" fill="#EBEDF0"><title>2026-07-26: 0 min</title></rect>
<rect x="460" y="42" width="12" height="12" rx="2" ry="2" fill="#EBEDF0"><title>2026-07-27: 0 min</title></rect>
<rect x="460" y="56" width="12" height="12" rx="2" ry="2" fill="#EBEDF0"><title>2026-07-28: 0 min</title></rect>
<rect x="460" y="70" width="12" height="12" rx="2" ry="2" fill="#EBEDF0"><title>2026-07-29: 0 min</title></rect>
<rect x="460" y="84" width="12" height="12" rx="2" ry="2" fill="#EBEDF0"><title>2026-07-30: 0 min</title></rect>
<rect x="460" y="98" width="12" height="12" rx="2" ry="2" fill="#EBEDF0"><title>2026-07-31: 0 min</title></rect>
<rect x="460" y="112" width="12" height="12" rx="2" ry="2" fill="#EBEDF0"><title>2026-08-01: 0 min</title></rect>
<rect x="474" y="28" width="12" height="12" rx="2" ry="2" fill="#EBEDF0"><title>2026-08-02: 0 min</title></rect>
<rect x="474" y="42" width="12" height="12" rx="2" ry="2" fill="#EBEDF0"><title>2026-08-03: 0 min</title></rect>
<rect x="474" y="56" width="12" height="12" rx="2" ry="2" fill="#EBEDF0"><title>2026-08-04: 0 min</title></rect>
<rect x="474" y="70" width="12" height="12" rx="2" ry="2" fill="#EBEDF0"><title>2026-08-05: 0 min</title></rect>
<rect x="474" y="84" width="12" height="12" rx="2" ry="2" fill="#EBEDF0"><title>2026-08-06: 0 min</title></rect>
<rect x="474" y="98" width="12" height="12" rx="2" ry="2" fill="#EBEDF0"><title>2026-08-07: 0 min</title></rect>
<rect x="474" y="112" width="12" height="12" rx="2" ry="2" fill="#EBEDF0"><title>2026-08-08: 0 min</title></rect>
<rect x="488" y="28" width="12" height="12" rx="2" ry="2" fill="#EBEDF0"><title>2026-08-09: 0 min</title></rect>
<rect x="488" y="42" width="12" height="12" rx="2" ry="2" fill="#EBEDF0"><title>2026-08-10: 0 min</title></rect>
<rect x="488" y="56" width="12" height="12" rx="2" ry="2" fill="#EBEDF0"><title>2026-08-11: 0 min</title></rect>
<rect x="488" y="70" width="12" height="12" rx="2" ry="2" fill="#EBEDF0"><title>2026-08-12: 0 min</title></rect>
<rect x="488" y="84" width="12" height="12" rx="2" ry="2" fill="#EBEDF0"><title>2026-08-13: 0 min</title></rect>
<rect x="488" y="98" width="12" height="12" rx="2" ry="2" fill="#EBEDF0"><title>2026-08-14: 0 min</title></rect>
<rect x="488" y="112" width="12" height="12" rx="2" ry="2" fill="#EBEDF0"><title>2026-08-15: 0 min</title></rect>
<rect x="502" y="28" width="12" height="12" rx="2" ry="2" fill="#EBEDF0"><title>2026-08-16: 0 min</title></rect>
<rect x="502" y="42" width="12" height="12" rx="2" ry="2" fill="#EBEDF0"><title>2026-08-17: 0 min</title></rect>
<rect x="502" y="56" width="12" height="12" rx="2" ry="2" fill="#EBEDF0"><title>2026-08-18: 0 min</title></rect>
<rect x="502" y="70" width="12" height="12" rx="2" ry="2" fill="#EBEDF0"><title>2026-08-19: 0 min</title></rect>
<rect x="502" y="84" width="12" height="12" rx="2" ry="2" fill="#EBEDF0"><title>2026-08-20: 0 min</title></rect>
<rect x="502" y="98" width="12" height="12" rx="2" ry="2" fill="#EBEDF0"><title>2026-08-21: 0 min</title></rect>
<rect x="502" y="112" width="12" height="12" rx="2" ry="2" fill="#EBEDF0"><title>2026-08-22: 0 min</title></rect>
<rect x="516" y="28" width="12" height="12" rx="2" ry="2" fill="#EBEDF0"><title>2026-08-23: 0 min</title></rect>
<rect x="516" y="42" width="12" height="12" rx="2" ry="2" fill="#EBEDF0"><title>2026-08-24: 0 min</title></rect>
<rect x="516" y="56" width="12" height="12" rx="2" ry="2" fill="#EBEDF0"><title>2026-08-25: 0 min</title></rect>
<rect x="516" y="70" width="12" height="12" rx="2" ry="2" fill="#EBEDF0"><title>2026-08-26: 0 min</title></rect>
<rect x="516" y="84" width="12" height="12" rx="2" ry="2" fill="#EBEDF0"><title>2026-08-27: 0 min</title></rect>
<rect x="516" y="98" width="12" height="12" rx="2" ry="2" fill="#EBEDF0"><title>2026-08-28: 0 min</title></rect>
<rect x="516" y="112" width="12" height="12" rx="2" ry="2" fill="#EBEDF0"><title>2026-08-29: 0 min</title></rect>
<rect x="530" y="28" width="12" height="12" rx="2" ry="2" fill="#EBEDF0"><title>2026-08-30: 0 min</title></rect>
<rect x="530" y="42" width="12" height="12" rx="2" ry="2" fill="#EBEDF0"><title>2026-08-31: 0 min</title></rect>
<rect x="530" y="56" width="12" height="12" rx="2" ry="2" fill="#EBEDF0"><title>2026-09-01: 0 min</title></rect>
<rect x="530" y="70" width="12" height="12" rx="2" ry="2" fill="#EBEDF0"><title>2026-09-02: 0 min</title></rect>
<rect x="530" y="84" width="12" height="12" rx="2" ry="2" fill="#EBEDF0"><title>2026-09-03: 0 min</title></rect>
<rect x="530" y="98" width="12" height="12" rx="2" ry="2" fill="#EBEDF0"><title>2026-09-04: 0 min</title></rect>
<rect x="530" y="112" width="12" height="12" rx="2" ry="2" fill="#EBEDF0"><title>2026-09-05: 0 min</title></rect>
<rect x="544" y="28" width="12" height="12" rx="2" ry="2" fill="#EBEDF0"><title>2026-09-06: 0 min</title></rect>
<rect x="544" y="42" width="12" height="12" rx="2" ry="2" fill="#EBEDF0"><title>2026-09-07: 0 min</title></rect>
<rect x="544" y="56" width="12" height="12" rx="2" ry="2" fill="#EBEDF0"><title>2026-09-08: 0 min</title></rect>
<rect x="544" y="70" width="12" height="12" rx="2" ry="2" fill="#EBEDF0"><title>2026-09-09: 0 min</title></rect>
<rect x="544" y="84" width="12" height="12" rx="2" ry="2" fill="#EBEDF0"><title>2026-09-10: 0 min</title></rect>
<rect x="544" y="98" width="12" height="12" rx="2" ry="2" fill="#EBEDF0"><title>2026-09-11: 0 min</title></rect>
<rect x="544" y="112" width="12" height="12" rx="2" ry="2" fill="#EBEDF0"><title>2026-09-12: 0 min</title></rect>
<rect x="558" y="28" width="12" height="12" rx="2" ry="2" fill="#EBEDF0"><title>2026-09-13: 0 min</title></rect>
<rect x="558" y="42" width="12" height="12" rx="2" ry="2" fill="#EBEDF0"><title>2026-09-14: 0 min</title></rect>
<rect x="558" y="56" width="12" height="12" rx="2" ry="2" fill="#EBEDF0"><title>2026-09-15: 0 min</title></rect>
<rect x="558" y="70" width="12" height="12" rx="2" ry="2" fill="#EBEDF0"><title>2026-09-16: 0 min</title></rect>
<rect x="558" y="84" width="12" height="12" rx="2" ry="2" fill="#EBEDF0"><title>2026-09-17: 0 min</title></rect>
<rect x="558" y="98" width="12" height="12" rx="2" ry="2" fill="#EBEDF0"><title>2026-09-18: 0 min</title></rect>
<rect x="558" y="112" width="12" height="12" rx="2" ry="2" fill="#EBEDF0"><title>2026-09-19: 0 min</title></rect>
<rect x="572" y="28" width="12" height="12" rx="2" ry="2" fill="#EBEDF0"><title>2026-09-20: 0 min</title></rect>
<rect x="572" y="42" width="12" height="12" rx="2" ry="2" fill="#EBEDF0"><title>2026-09-21: 0 min</title></rect>
<rect x="572" y="56" width="12" height="12" rx="2" ry="2" fill="#EBEDF0"><title>2026-09-22: 0 min</title></rect>
<rect x="572" y="70" width="12" height="12" rx="2" ry="2" fill="#EBEDF0"><title>2026-09-23: 0 min</title></rect>
<rect x="572" y="84" width="12" height="12" rx="2" ry="2" fill="#EBEDF0"><title>2026-09-24: 0 min</title></rect>
<rect x="572" y="98" width="12" height="12" rx="2" ry="2" fill="#EBEDF0"><title>2026-09-25: 0 min</title></rect>
<rect x="572" y="112" width="12" height="12" rx="2" ry="2" fill="#EBEDF0"><title>2026-09-26: 0 min</title></rect>
<rect x="586" y="28" width="12" height="12" rx="2" ry="2" fill="#EBEDF0"><title>2026-09-27: 0 min</title></rect>
<rect x="586" y="42" width="12" height="12" rx="2" ry="2" fill="#EBEDF0"><title>2026-09-28: 0 min</title></rect>
<rect x="586" y="56" width="12" height="12" rx="2" ry="2" fill="#EBEDF0"><title>2026-09-29: 0 min</title></rect>
<rect x="586" y="70" width="12" height="12" rx="2" ry="2" fill="#EBEDF0"><title>2026-09-30: 0 min</title></rect>
<rect x="586" y="84" width="12" height="12" rx="2" ry="2" fill="#EBEDF0"><title>2026-10-01: 0 min</title></rect>
<rect x="586" y="98" width="12" height="12" rx="2" ry="2" fill="#EBEDF0"><title>2026-10-02: 0 min</title></rect>
<rect x="586" y="112" width="12" height="12" rx="2" ry="2" fill="#EBEDF0"><title>2026-10-03: 0 min</title></rect>
<rect x="600" y="28" width="12" height="12" rx="2" ry="2" fill="#EBEDF0"><title>2026-10-04: 0 min</title></rect>
<rect x="600" y="42" width="12" height="12" rx="2" ry="2" fill="#EBEDF0"><title>2026-10-05: 0 min</title></rect>
<rect x="600" y="56" width="12" height="12" rx="2" ry="2" fill="#EBEDF0"><title>2026-10-06: 0 min</title></rect>
<rect x="600" y="70" width="12" height="12" rx="2" ry="2" fill="#EBEDF0"><title>2026-10-07: 0 min</title></rect>
<rect x="600" y="84" width="12" height="12" rx="2" ry="2" fill="#EBEDF0"><title>2026-10-08: 0 min</title></rect>
<rect x="600" y="98" width="12" height="12" rx="2" ry="2" fill="#EBEDF0"><title>2026-10-09: 0 min</title></rect>
<rect x="600" y="112" width="12" height="12" rx="2" ry="2" fill="#EBEDF0"><title>2026-10-10: 0 min</title></rect>
<rect x="614" y="28" width="12" height="12" rx="2" ry="2" fill="#EBEDF0"><title>2026-10-11: 0 min</title></rect>
<rect x="614" y="42" width="12" height="12" rx="2" ry="2" fill="#EBEDF0"><title>2026-10-12: 0 min</title></rect>
<rect x="614" y="56" width="12" height="12" rx="2" ry="2" fill="#EBEDF0"><title>2026-10-13: 0 min</title></rect>
<rect x="614" y="70" width="12" height="12" rx="2" ry="2" fill="#EBEDF0"><title>2026-10-14: 0 min</title></rect>
<rect x="614" y="84" width="12" height="12" rx="2" ry="2" fill="#EBEDF0"><title>2026-10-15: 0 min</title></rect>
<rect x="614" y="98" width="12" height="12" rx="2" ry="2" fill="#EBEDF0"><title>2026-10-16: 0 min</title></rect>
<rect x="614" y="112" width="12" height="12" rx="2" ry="2" fill="#EBEDF0"><title>2026-10-17: 0 min</title></rect>
<rect x="628" y="28" width="12" height="12" rx="2" ry="2" fill="#EBEDF0"><title>2026-10-18: 0 min</title></rect>
<rect x="628" y="42" width="12" height="12" rx="2" ry="2" fill="#EBEDF0"><title>2026-10-19: 0 min</title></rect>
<rect x="628" y="56" width="12" height="12" rx="2" ry="2" fill="#EBEDF0"><title>2026-10-20: 0 min</title></rect>
<rect x="628" y="70" width="12" height="12" rx="2" ry="2" fill="#EBEDF0"><title>2026-10-21: 0 min</title></rect>
<rect x="628" y="84" width="12" height="12" rx="2" ry="2" fill="#EBEDF0"><title>2026-10-22: 0 min</title></rect>
<rect x="628" y="98" width="12" height="12" rx="2" ry="2" fill="#EBEDF0"><title>2026-10-23: 0 min</title></rect>
<rect x="628" y="112" width="12" height="12" rx="2" ry="2" fill="#EBEDF0"><title>2026-10-24: 0 min</title></rect>
<rect x="642" y="28" width="12" height="12" rx="2" ry="2" fill="#EBEDF0"><title>2026-10-25: 0 min</title></rect>
<rect x="642" y="42" width="12" height="12" rx="2" ry="2" fill="#EBEDF0"><title>2026-10-26: 0 min</title></rect>
<rect x="642" y="56" width="12" height="12" rx="2" ry="2" fill="#EBEDF0"><title>2026-10-27: 0 min</title></rect>
<rect x="642" y="70" width="12" height="12" rx="2" ry="2" fill="#EBEDF0"><title>2026-10-28: 0 min</title></rect>
<rect x="642" y="84" width="12" height="12" rx="2" ry="2" fill="#EBEDF0"><title>2026-10-29: 0 min</title></rect>
<rect x="642" y="98" width="12" height="12" rx="2" ry="2" fill="#EBEDF0"><title>2026-10-30: 0 min</title></rect>
<rect x="642" y="112" width="12" height="12" rx="2" ry="2" fill="#EBEDF0"><title>2026-10-31: 0 min</title></rect>
<rect x="656" y="28" width="12" height="12" rx="2" ry="2" fill="#EBEDF0"><title>2026-11-01: 0 min</title></rect>
<rect x="656" y="42" width="12" height="12" rx="2" ry="2" fill="#EBEDF0"><title>2026-11-02: 0 min</title></rect>
<rect x="656" y="56" width="12" height="12" rx="2" ry="2" fill="#EBEDF0"><title>2026-11-03: 0 min</title></rect>
<rect x="656" y="70" width="12" height="12" rx="2" ry="2" fill="#EBEDF0"><title>2026-11-04: 0 min</title></rect>
<rect x="656" y="84" width="12" height="12" rx="2" ry="2" fill="#EBEDF0"><title>2026-11-05: 0 min</title></rect>
<rect x="656" y="98" width="12" height="12" rx="2" ry="2" fill="#EBEDF0"><title>2026-11-06: 0 min</title></rect>
<rect x="656" y="112" width="12" height="12" rx="2" ry="2" fill="#EBEDF0"><title>2026-11-07: 0 min</title></rect>
<rect x="670" y="28" width="12" height="12" rx="2" ry="2" fill="#EBEDF0"><title>2026-11-08: 0 min</title></rect>
<rect x="670" y="42" width="12" height="12" rx="2" ry="2" fill="#EBEDF0"><title>2026-11-09: 0 min</title></rect>
<rect x="670" y="56" width="12" height="12" rx="2" ry="2" fill="#EBEDF0"><title>2026-11-10: 0 min</title></rect>
<rect x="670" y="70" width="12" height="12" rx="2" ry="2" fill="#EBEDF0"><title>2026-11-11: 0 min</title></rect>
<rect x="670" y="84" width="12" height="12" rx="2" ry="2" fill="#EBEDF0"><title>2026-11-12: 0 min</title></rect>
<rect x="670" y="98" width="12" height="12" rx="2" ry="2" fill="#EBEDF0"><title>2026-11-13: 0 min</title></rect>
<rect x="670" y="112" width="12" height="12" rx="2" ry="2" fill="#EBEDF0"><title>2026-11-14: 0 min</title></rect>
<rect x="684" y="28" width="12" height="12" rx="2" ry="2" fill="#EBEDF0"><title>2026-11-15: 0 min</title></rect>
<rect x="684" y="42" width="12" height="12" rx="2" ry="2" fill="#EBEDF0"><title>2026-11-16: 0 min</title></rect>
<rect x="684" y="56" width="12" height="12" rx="2" ry="2" fill="#EBEDF0"><title>2026-11-17: 0 min</title></rect>
<rect x="684" y="70" width="12" height="12" rx="2" ry="2" fill="#EBEDF0"><title>2026-11-18: 0 min</title></rect>
<rect x="684" y="84" width="12" height="12" rx="2" ry="2" fill="#EBEDF0"><title>2026-11-19: 0 min</title></rect>
<rect x="684" y="98" width="12" height="12" rx="2" ry="2" fill="#EBEDF0"><title>2026-11-20: 0 min</title></rect>
<rect x="684" y="112" width="12" height="12" rx="2" ry="2" fill="#EBEDF0"><title>2026-11-21: 0 min</title></rect>
<rect x="698" y="28" width="12" height="12" rx="2" ry="2" fill="#EBEDF0"><title>2026-11-22: 0 min</title></rect>
<rect x="698" y="42" width="12" height="12" rx="2" ry="2" fill="#EBEDF0"><title>2026-11-23: 0 min</title></rect>
<rect x="698" y="56" width="12" height="12" rx="2" ry="2" fill="#EBEDF0"><title>2026-11-24: 0 min</title></rect>
<rect x="698" y="70" width="12" height="12" rx="2" ry="2" fill="#EBEDF0"><title>2026-11-25: 0 min</title></rect>
<rect x="698" y="84" width="12" height="12" rx="2" ry="2" fill="#EBEDF0"><title>2026-11-26: 0 min</title></rect>
<rect x="698" y="98" width="12" height="12" rx="2" ry="2" fill="#EBEDF0"><title>2026-11-27: 0 min</title></rect>
<rect x="698" y="112" width="12" height="12" rx="2" ry="2" fill="#EBEDF0"><title>2026-11-28: 0 min</title></rect>
<rect x="712" y="28" width="12" height="12" rx="2" ry="2" fill="#EBEDF0"><title>2026-11-29: 0 min</title></rect>
<rect x="712" y="42" width="12" height="12" rx="2" ry="2" fill="#EBEDF0"><title>2026-11-30: 0 min</title></rect>
<rect x="712" y="56" width="12" height="12" rx="2" ry="2" fill="#EBEDF0"><title>2026-12-01: 0 min</title></rect>
<rect x="712" y="70" width="12" height="12" rx="2" ry="2" fill="#EBEDF0"><title>2026-12-02: 0 min</title></rect>
<rect x="712" y="84" width="12" height="12" rx="2" ry="2" fill="#EBEDF0"><title>2026-12-03: 0 min</title></rect>
<rect x="712" y="98" width="12" height="12" rx="2" ry="2" fill="#EBEDF0"><title>2026-12-04: 0 min</title></rect>
<rect x="712" y="112" width="12" height="12" rx="2" ry="2" fill="#EBEDF0"><title>2026-12-05: 0 min</title></rect>
<rect x="726" y="28" width="12" height="12" rx="2" ry="2" fill="#EBEDF0"><title>2026-12-06: 0 min</title></rect>
<rect x="726" y="42" width="12" height="12" rx="2" ry="2" fill="#EBEDF0"><title>2026-12-07: 0 min</title></rect>
<rect x="726" y="56" width="12" height="12" rx="2" ry="2" fill="#EBEDF0"><title>2026-12-08: 0 min</title></rect>
<rect x="726" y="70" width="12" height="12" rx="2" ry="2" fill="#EBEDF0"><title>2026-12-09: 0 min</title></rect>
<rect x="726" y="84" width="12" height="12" rx="2" ry="2" fill="#EBEDF0"><title>2026-12-10: 0 min</title></rect>
<rect x="726" y="98" width="12" height="12" rx="2" ry="2" fill="#EBEDF0"><title>2026-12-11: 0 min</title></rect>
<rect x="726" y="112" width="12" height="12" rx="2" ry="2" fill="#EBEDF0"><title>2026-12-12: 0 min</title></rect>
<rect x="740" y="28" width="12" height="12" rx="2" ry="2" fill="#EBEDF0"><title>2026-12-13: 0 min</title></rect>
<rect x="740" y="42" width="12" height="12" rx="2" ry="2" fill="#EBEDF0"><title>2026-12-14: 0 min</title></rect>
<rect x="740" y="56" width="12" height="12" rx="2" ry="2" fill="#EBEDF0"><title>2026-12-15: 0 min</title></rect>
<rect x="740" y="70" width="12" height="12" rx="2" ry="2" fill="#EBEDF0"><title>2026-12-16: 0 min</title></rect>
<rect x="740" y="84" width="12" height="12" rx="2" ry="2" fill="#EBEDF0"><title>2026-12-17: 0 min</title></rect>
<rect x="740" y="98" width="12" height="12" rx="2" ry="2" fill="#EBEDF0"><title>2026-12-18: 0 min</title></rect>
<rect x="740" y="112" width="12" height="12" rx="2" ry="2" fill="#EBEDF0"><title>2026-12-19: 0 min</title></rect>
<rect x="754" y="28" width="12" height="12" rx="2" ry="2" fill="#EBEDF0"><title>2026-12-20: 0 min</title></rect>
<rect x="754" y="42" width="12" height="12" rx="2" ry="2" fill="#EBEDF0"><title>2026-12-21: 0 min</title></rect>
<rect x="754" y="56" width="12" height="12" rx="2" ry="2" fill="#EBEDF0"><title>2026-12-22: 0 min</title></rect>
<rect x="754" y="70" width="12" height="12" rx="2" ry="2" fill="#EBEDF0"><title>2026-12-23: 0 min</title></rect>
<rect x="754" y="84" width="12" height="12" rx="2" ry="2" fill="#EBEDF0"><title>2026-12-24: 0 min</title></rect>
<rect x="754" y="98" width="12" height="12" rx="2" ry="2" fill="#EBEDF0"><title>2026-12-25: 0 min</title></rect>
<rect x="754" y="112" width="12" height="12" rx="2" ry="2" fill="#EBEDF0"><title>2026-12-26: 0 min</title></rect>
<rect x="768" y="28" width="12" height="12" rx="2" ry="2" fill="#EBEDF0"><title>2026-12-27: 0 min</title></rect>
<rect x="768" y="42" width="12" height="12" rx="2" ry="2" fill="#EBEDF0"><title>2026-12-28: 0 min</title></rect>
<rect x="768" y="56" width="12" height="12" rx="2" ry="2" fill="#EBEDF0"><title>2026-12-29: 0 min</title></rect>
<rect x="768" y="70" width="12" height="12" rx="2" ry="2" fill="#EBEDF0"><title>2026-12-30: 0 min</title></rect>
<rect x="768" y="84" width="12" height="12" rx="2" ry="2" fill="#EBEDF0"><title>2026-12-31: 0 min</title></rect>
<text x="40" y="136" style="font-size:8px;font-family:Arial;" fill="#666">Less</text>
<rect x="70" y="127" width="10" height="10" fill="#EBEDF0"/>
<rect x="84" y="127" width="10" height="10" fill="#ACE7AE"/>
<rect x="98" y="127" width="10" height="10" fill="#69C16E"/>
<rect x="112" y="127" width="10" height="10" fill="#549F57"/>
<rect x="126" y="127" width="10" height="10" fill="#2B7239"/>
<text x="140" y="136" style="font-size:8px;font-family:Arial;" fill="#666">More</text>
</svg>